<svg xmlns="http://www.w3.org/2000/svg" viewBox="0 0 64 64" role="img">
  <title>Svelte logo</title>
  <path fill="#ff3e00" d="M44.2 6.7c-6.9-4-15.8-1.8-19.9 5l-12 19.7c-4.2 6.8-2 15.7 4.8 19.8 5.6 3.4 12.8 2.5 17.4-1.8l.8.5c6.8 4.1 15.7 2 19.9-4.8 3.9-6.4 2.2-14.7-3.6-19.1l.3-.5c4.2-6.8 1.9-15.7-7.7-18.8Z" />
  <path fill="#fff" d="M24.6 44.2c-2.7 0-5.1-1.4-6.5-3.7a7.4 7.4 0 0 1 .2-7.7l12-19.7a7.7 7.7 0 0 1 10.5-2.5c3.6 2.2 4.8 6.9 2.6 10.5l-1 1.6a1.9 1.9 0 0 1-2.6.6l-5.6-3.4a1.9 1.9 0 0 0-2.6.6 1.9 1.9 0 0 0 .6 2.6l5.6 3.4a7.6 7.6 0 0 1 2.5 10.4l-1.2 1.9a7.6 7.6 0 0 1-10.4 2.5l-5.7-3.5a1.9 1.9 0 1 0-2 3.2l1 .6c.8.4 1.7.6 2.6.6Z" opacity=".95" />
  <path fill="#fff" d="M34.6 49.1a7.6 7.6 0 0 1-9.4-1.7 1.9 1.9 0 0 1 .4-2.8 1.9 1.9 0 0 1 2.7.4c1.1 1.5 3.2 1.9 4.8.9a3.7 3.7 0 0 0 1.2-5l-5.6-3.4a7.6 7.6 0 0 1-2.5-10.4l1.1-1.8a7.6 7.6 0 0 1 10.4-2.5l5.6 3.4a1.9 1.9 0 1 0 2-3.2l-.6-.4a1.9 1.9 0 0 1-.6-2.6 1.9 1.9 0 0 1 2.6-.6l.6.4a7.6 7.6 0 0 1 2.5 10.4 7.6 7.6 0 0 1-10.4 2.5l-5.6-3.4a1.9 1.9 0 0 0-2.6.6 1.9 1.9 0 0 0 .6 2.6l5.6 3.4a7.6 7.6 0 0 1 2.5 10.4 7.6 7.6 0 0 1-5.3 3.4Z" />
</svg>
